:SAMPLES-PER-SECOND 30
:FULLY-SPECIFIED
:DEGREES
129
root  -5.11555 40.0856 13.5296 -176.212 37.5966 176.103
RightUpLeg  -14.9915 -7.70538 -7.92138
RightLeg  25.6892 -3.81987 -2.20359
RightFoot  -4.83217 -1.4753 24.9366
RightToes  2.32829e-010 0 -3.6325e-017
Spine  12.59 0.718915 -4.54671
Spine1  21.2355 1.71474 -3.89314
HEad  -21.1186 30.2511 -16.2261
LeftShoulder1  0.928893 -0.633222 -15.6516
LeftArm  12.4834 12.2372 -56.8934
LeftForeArm  113.445 -78.6217 -116.391
LeftHand  -2.31162 -4.21541 27.7267
RightShoulder  0.7129 0.326742 11.5332
RightArm  13.7111 -16.9302 64.588
RightForeArm  146.243 63.5364 157.788
RightHand  -0.966246 4.49503 -11.5957
LeftUpLeg  -13.4115 8.56005 3.31048
LeftLeg  18.7975 0.399642 0.451345
LeftFoot  0.507918 1.64991 -15.777
LeftToes  -5.54824e-011 -8.71001e-011 8.3852e-012
130
root  -5.40377 40.4082 13.8663 -175.513 37.2113 176.28
RightUpLeg  -12.8494 -8.60879 -5.78837
RightLeg  25.46 -2.97264 -1.76495
RightFoot  -2.12589 -2.18533 26.5903
RightToes  2.32829e-010 0 -3.6325e-017
Spine  12.0642 0.427782 -3.58388
Spine1  20.6021 1.64952 -4.25825
HEad  -20.3682 30.1858 -15.7631
LeftShoulder1  0.863098 -0.343535 -15.6248
LeftArm  13.6861 13.2327 -55.6552
LeftForeArm  115.304 -78.4246 -118.297
LeftHand  -2.23288 -4.29458 26.616
RightShoulder  0.666227 0.160998 11.0507
RightArm  13.2239 -16.6408 64.5415
RightForeArm  145.323 63.036 158.145
RightHand  -0.940525 4.15423 -11.6756
LeftUpLeg  -14.1405 8.31985 3.75925
LeftLeg  16.8362 -2.18209 -0.571734
LeftFoot  3.95835 2.48312 -18.5941
LeftToes  -5.54824e-011 -8.71001e-011 8.3852e-012
131
root  -5.6883 40.3925 14.133 -175.259 36.4915 176.012
RightUpLeg  -10.4544 -10.4443 -4.6928
RightLeg  25.7416 -3.45137 -2.03746
RightFoot  -1.15253 -2.25564 24.8008
RightToes  2.32829e-010 0 -3.6325e-017
Spine  10.9627 0.234413 -2.93454
Spine1  20.5687 1.35214 -3.67931
HEad  -19.6255 29.5873 -15.454
LeftShoulder1  0.874906 -0.449553 -15.3046
LeftArm  14.1883 13.8313 -55.3967
LeftForeArm  112.172 -78.7774 -114.81
LeftHand  -2.15438 -4.25015 25.833
RightShoulder  0.573357 -0.246436 10.4107
RightArm  12.2493 -16.1191 64.0773
RightForeArm  144.236 62.8106 158.236
RightHand  -0.944376 4.02301 -11.8764
LeftUpLeg  -15.4011 4.89854 4.09903
LeftLeg  17.4633 -3.13517 -0.809095
LeftFoot  3.82686 2.54769 -19.1323
LeftToes  -5.54824e-011 -8.71001e-011 8.3852e-012
132
root  -5.9654 40.0268 14.359 -175.654 35.5702 175.202
RightUpLeg  -8.19601 -11.1464 -4.72961
RightLeg  25.8419 -3.92535 -2.29713
RightFoot  -4.68994 -1.26643 20.7152
RightToes  2.32829e-010 0 -3.6325e-017
Spine  9.96507 0.114332 -2.82779
Spine1  20.3738 0.890532 -2.49969
HEad  -18.5951 28.7936 -14.9573
LeftShoulder1  0.930442 -0.787865 -14.7987
LeftArm  14.3688 14.423 -55.8113
LeftForeArm  106.926 -79.0998 -110.274
LeftHand  -2.07649 -4.02582 25.505
RightShoulder  0.468304 -0.756918 9.81318
RightArm  10.9032 -15.8712 63.2702
RightForeArm  143.386 62.6279 158.315
RightHand  -0.94638 4.0217 -11.9025
LeftUpLeg  -16.8867 -0.0538919 4.428
LeftLeg  21.1196 -0.4792 0.164506
LeftFoot  1.04673 1.75852 -16.0773
LeftToes  -5.54824e-011 -8.71001e-011 8.3852e-012
133
root  -6.30804 39.382 14.6066 -176.663 35.7422 174.582
RightUpLeg  -7.11141 -8.40833 -4.85715
RightLeg  26.7507 -5.46874 -3.23609
RightFoot  -11.8197 -0.00198752 17.2822
RightToes  2.32829e-010 0 -3.6325e-017
Spine  9.82503 0.139678 -2.14799
Spine1  20.2811 1.04618 -2.23732
HEad  -18.3259 28.1567 -14.8875
LeftShoulder1  0.908005 -0.644369 -15.0525
LeftArm  14.7162 14.0591 -55.8554
LeftForeArm  101.753 -79.3181 -105.977
LeftHand  -2.03292 -3.78378 25.6218
RightShoulder  0.380803 -1.26901 9.84868
RightArm  9.45652 -14.7831 61.9412
RightForeArm  141.529 62.8874 157.913
RightHand  -0.940327 3.92876 -11.9422
LeftUpLeg  -17.609 -3.0651 4.96957
LeftLeg  26.3477 3.83925 2.40339
LeftFoot  -2.85965 1.0104 -13.461
LeftToes  -5.54824e-011 -8.71001e-011 8.3852e-012
134
root  -6.75681 38.6846 14.8715 -177.892 37.9034 174.838
RightUpLeg  -7.56945 -3.36039 -4.26859
RightLeg  29.3728 -8.06158 -5.13562
RightFoot  -18.0729 0.817964 15.7963
RightToes  2.32829e-010 0 -3.6325e-017
Spine  10.286 0.336525 -0.128792
Spine1  21.3342 2.13204 -3.5839
HEad  -20.1802 28.0033 -16.2396
LeftShoulder1  0.827629 -0.0563396 -16.5218
LeftArm  14.5832 11.8648 -55.5657
LeftForeArm  90.1061 -79.7065 -93.6101
LeftHand  -2.08569 -3.66055 26.5932
RightShoulder  0.343273 -1.57529 10.7008
RightArm  8.13663 -11.4763 60.4045
RightForeArm  137.008 64.7314 155.657
RightHand  -0.981831 3.81112 -12.601
LeftUpLeg  -17.0054 -3.23413 5.93134
LeftLeg  30.6837 6.16708 4.25402
LeftFoot  -7.26013 0.561583 -14.8204
LeftToes  -5.54824e-011 -8.71001e-011 8.3852e-012
